<svg width="32" height="33" viewBox="0 0 32 33" fill="none" xmlns="http://www.w3.org/2000/svg">
<path d="M14.5333 3.30029C8.40001 3.96696 3.46668 8.90029 2.80001 14.9003C2.13335 21.167 5.73334 26.767 11.2 28.9003C11.6 29.0336 12 28.767 12 28.2336V26.1003C12 26.1003 11.4667 26.2336 10.8 26.2336C8.93335 26.2336 8.13335 24.6336 8.00001 23.7003C7.86668 23.167 7.60001 22.767 7.20001 22.367C6.80001 22.2336 6.66668 22.2336 6.66668 22.1003C6.66668 21.8336 7.06668 21.8336 7.20001 21.8336C8.00001 21.8336 8.66668 22.767 8.93334 23.167C9.60001 24.2336 10.4 24.5003 10.8 24.5003C11.3333 24.5003 11.7333 24.367 12 24.2336C12.1333 23.3003 12.5333 22.367 13.3333 21.8336C10.2667 21.167 8.00001 19.4336 8.00001 16.5003C8.00001 15.0336 8.66668 13.567 9.60001 12.5003C9.46668 12.2336 9.33334 11.567 9.33334 10.6336C9.33334 10.1003 9.33335 9.30029 9.73335 8.50029C9.73335 8.50029 11.6 8.5003 13.4667 10.2336C14.1333 9.96696 15.0667 9.83363 16 9.83363C16.9333 9.83363 17.8667 9.96696 18.6667 10.2336C20.4 8.5003 22.4 8.50029 22.4 8.50029C22.6667 9.30029 22.6667 10.1003 22.6667 10.6336C22.6667 11.7003 22.5333 12.2336 22.4 12.5003C23.3333 13.567 24 14.9003 24 16.5003C24 19.4336 21.7333 21.167 18.6667 21.8336C19.4667 22.5003 20 23.7003 20 24.9003V28.367C20 28.767 20.4 29.167 20.9333 29.0336C25.8667 27.0336 29.3333 22.2336 29.3333 16.6336C29.3333 8.63363 22.5333 2.36696 14.5333 3.30029Z" fill="#FFFFFE"/>
</svg>
