<svg width="32" height="33" viewBox="0 0 32 33" fill="none" xmlns="http://www.w3.org/2000/svg">
<path d="M10.6667 4.5C6.98533 4.5 4 7.48533 4 11.1667V21.8333C4 25.5147 6.98533 28.5 10.6667 28.5H21.3333C25.0147 28.5 28 25.5147 28 21.8333V11.1667C28 7.48533 25.0147 4.5 21.3333 4.5H10.6667ZM24 7.16667C24.736 7.16667 25.3333 7.764 25.3333 8.5C25.3333 9.236 24.736 9.83333 24 9.83333C23.264 9.83333 22.6667 9.236 22.6667 8.5C22.6667 7.764 23.264 7.16667 24 7.16667ZM16 9.83333C19.6813 9.83333 22.6667 12.8187 22.6667 16.5C22.6667 20.1813 19.6813 23.1667 16 23.1667C12.3187 23.1667 9.33333 20.1813 9.33333 16.5C9.33333 12.8187 12.3187 9.83333 16 9.83333ZM16 12.5C14.9391 12.5 13.9217 12.9214 13.1716 13.6716C12.4214 14.4217 12 15.4391 12 16.5C12 17.5609 12.4214 18.5783 13.1716 19.3284C13.9217 20.0786 14.9391 20.5 16 20.5C17.0609 20.5 18.0783 20.0786 18.8284 19.3284C19.5786 18.5783 20 17.5609 20 16.5C20 15.4391 19.5786 14.4217 18.8284 13.6716C18.0783 12.9214 17.0609 12.5 16 12.5Z" fill="#FFFFFE"/>
</svg>
