<svg width="32" height="33" viewBox="0 0 32 33" fill="none" xmlns="http://www.w3.org/2000/svg">
<path d="M29.3334 5.83203C28.2934 6.44936 26.2067 7.2907 24.9801 7.53336C24.9441 7.5427 24.9147 7.5547 24.8801 7.56403C23.7961 6.4947 22.3107 5.83203 20.6667 5.83203C17.3534 5.83203 14.6667 8.5187 14.6667 11.832C14.6667 12.0067 14.6521 12.328 14.6667 12.4987C10.1961 12.4987 6.79342 10.1574 4.35341 7.16536C4.08808 7.83203 3.97208 8.88536 3.97208 9.8747C3.97208 11.7427 5.43208 13.5774 7.70541 14.7147C7.28675 14.8227 6.82541 14.9 6.34541 14.9C5.57075 14.9 4.75075 14.696 4.00008 14.0774C4.00008 14.1 4.00008 14.1214 4.00008 14.1454C4.00008 16.756 6.77075 18.5334 9.23475 19.028C8.73475 19.3227 7.72675 19.352 7.23475 19.352C6.88808 19.352 5.66141 19.1934 5.33341 19.132C6.01875 21.272 8.49075 22.4747 10.8467 22.5174C9.00408 23.9627 7.72541 24.4987 3.95208 24.4987H2.66675C5.05075 26.0267 8.08675 27.1667 11.1294 27.1667C21.0361 27.1667 26.6667 19.616 26.6667 12.4987C26.6667 12.384 26.6641 12.144 26.6601 11.9027C26.6601 11.8787 26.6667 11.856 26.6667 11.832C26.6667 11.796 26.6561 11.7614 26.6561 11.7254C26.6521 11.544 26.6481 11.3747 26.6441 11.2867C27.6974 10.5267 28.6107 9.5787 29.3334 8.4987C28.3667 8.92803 27.3294 9.21603 26.2401 9.3467C27.3521 8.68003 28.9321 7.0907 29.3334 5.83203Z" fill="#FFFFFE"/>
</svg>
